<svg xmlns="http://www.w3.org/2000/svg" width="110" height="65" fill="none" viewBox="0 0 110 65"><mask id="b" width="111" height="65" x="-.522" y="-.023" fill="#000" maskUnits="userSpaceOnUse"><path fill="#fff" d="M-.522-.023h111v65h-111z"/><path d="M27.682 62.568q-7.926-.028-13.693-3.665T5.097 48.42 2 32q.029-9.603 3.125-16.307Q8.25 8.988 13.99 5.494 19.756 2 27.682 2t13.693 3.523q5.767 3.495 8.892 10.198Q53.393 22.426 53.364 32q0 9.63-3.125 16.477T41.347 58.96q-5.738 3.608-13.665 3.608m0-12.84q4.09 0 6.705-4.262Q37.029 41.176 37 32q0-5.995-1.193-9.801t-3.295-5.625q-2.103-1.847-4.83-1.847-4.091 0-6.676 4.148T18.364 32q-.028 6.108 1.165 10.057 1.193 3.92 3.295 5.795 2.13 1.875 4.858 1.875m56.392 12.045q-6.704 0-11.903-2.358-5.17-2.387-8.154-6.563-2.955-4.176-3.011-9.602h15.34q.087 3.011 2.33 4.8 2.274 1.79 5.398 1.79 2.415 0 4.261-1.022a7.5 7.5 0 0 0 2.898-2.955q1.052-1.904 1.023-4.431.029-2.557-1.023-4.432-1.05-1.905-2.898-2.926-1.846-1.051-4.26-1.051-2.501 0-4.632 1.221-2.101 1.194-3.096 3.324L62.483 34.84l2.273-32.046h39.091V15.41H77.711l-1.137 12.84h.341q1.364-2.64 4.716-4.374 3.353-1.761 7.784-1.762 5.199 0 9.261 2.415 4.091 2.415 6.449 6.676 2.386 4.233 2.358 9.773.029 6.08-2.898 10.796-2.897 4.686-8.153 7.357-5.256 2.642-12.358 2.642"/></mask><path fill="url(#a)" d="m27.682 62.568-.007 2h.007zM13.99 58.903l-1.067 1.692zM5.097 48.42l-1.82.83zM2 32l2 .006zm3.125-16.307-1.812-.845-.003.006zM13.99 5.494l-1.037-1.71-.003.002zm27.386.029-1.042 1.706.006.004zm8.892 10.198 1.813-.845zM53.364 32l-2-.006V32zm-3.125 16.477 1.82.83zM41.347 58.96l1.064 1.693.003-.001zm-6.96-13.494-1.703-1.05-.002.004zM37 32h-2v.006zm-1.193-9.801 1.908-.599zm-3.295-5.625-1.32 1.502.006.005.005.005zm-11.506 2.3-1.697-1.057zM18.364 32l-2-.013v.004zm1.165 10.057-1.915.578.001.004zm3.295 5.795-1.331 1.493.01.008zm4.858 14.716.007-2c-4.97-.018-9.155-1.163-12.633-3.357l-1.067 1.692-1.067 1.692c4.21 2.655 9.156 3.953 14.753 3.973zM13.99 58.903l1.067-1.692c-3.482-2.195-6.2-5.373-8.14-9.621l-1.82.83-1.819.83c2.228 4.881 5.437 8.692 9.645 11.345zM5.097 48.42l1.82-.83C4.98 43.35 3.981 38.176 4 32.006L2 32l-2-.006c-.02 6.595 1.046 12.369 3.277 17.257zM2 32l2 .006c.019-6.197 1.028-11.332 2.941-15.474l-1.816-.839-1.815-.839C1.094 19.651.02 25.388 0 31.994zm3.125-16.307 1.813.845c1.934-4.15 4.636-7.232 8.091-9.336l-1.04-1.708-1.04-1.708C8.752 6.34 5.545 10.058 3.313 14.848zM13.99 5.494l1.036 1.71C18.506 5.096 22.7 4 27.682 4V0c-5.585 0-10.521 1.234-14.73 3.784zM27.682 2v2c4.98 0 9.17 1.104 12.65 3.23l1.043-1.707 1.043-1.707C38.208 1.244 33.27 0 27.682 0zm13.693 3.523-1.036 1.71c3.473 2.104 6.183 5.186 8.116 9.333l1.812-.845 1.813-.845c-2.234-4.792-5.452-8.51-9.668-11.064zm8.892 10.198-1.812.845c1.928 4.137 2.927 9.256 2.909 15.428l2 .006 2 .006c.02-6.594-1.045-12.327-3.284-17.13zM53.364 32h-2c0 6.21-1.008 11.405-2.944 15.647l1.819.83 1.82.83C54.288 44.42 55.363 38.63 55.363 32zm-3.125 16.477-1.82-.83c-1.939 4.248-4.657 7.426-8.139 9.621l1.067 1.692 1.067 1.692c4.207-2.654 7.417-6.464 9.644-11.345zM41.347 58.96l-1.065-1.693c-3.456 2.173-7.628 3.301-12.6 3.301v4c5.596 0 10.534-1.277 14.73-3.915zm-13.665-9.233v2c3.585 0 6.397-1.934 8.41-5.216l-1.705-1.045-1.705-1.046c-1.473 2.4-3.13 3.307-5 3.307zm6.705-4.261 1.703 1.048c2.059-3.343 2.93-8.293 2.91-14.52L37 32l-2 .006c.019 6.007-.853 10.035-2.316 12.41zM37 32h2c0-4.108-.406-7.597-1.285-10.4l-1.908.599-1.908.598C34.61 25.07 35 28.115 35 32zm-1.193-9.801 1.908-.599c-.86-2.746-2.116-5-3.895-6.54l-1.308 1.514-1.309 1.512c1.024.886 1.966 2.381 2.696 4.71zm-3.295-5.625 1.32-1.503c-1.757-1.543-3.832-2.344-6.15-2.344v4c1.319 0 2.463.43 3.51 1.35zm-4.83-1.847v-2c-3.561 0-6.367 1.872-8.373 5.09l1.697 1.058 1.697 1.058c1.441-2.312 3.086-3.206 4.98-3.206zm-6.676 4.148-1.697-1.058c-2.023 3.245-2.907 8.08-2.945 14.17l2 .013 2 .012c.037-5.879.915-9.795 2.34-12.08zM18.364 32l-2-.01c-.02 4.186.377 7.754 1.25 10.645l1.915-.578 1.914-.579c-.717-2.374-1.098-5.51-1.08-9.469zm1.165 10.057-1.914.582c.857 2.814 2.105 5.124 3.878 6.706l1.331-1.493 1.331-1.492c-1.03-.92-1.979-2.473-2.713-4.886zm3.295 5.795-1.321 1.502c1.77 1.556 3.853 2.373 6.18 2.373v-4c-1.311 0-2.466-.433-3.538-1.376zm49.347 11.563-.838 1.816.012.005zm-8.154-6.563-1.632 1.155.005.008zm-3.011-9.602v-2h-2.021l.021 2.02zm15.34 0 2-.057-.055-1.943h-1.944zm2.33 4.8-1.247 1.565.01.007zm9.66.768.969 1.75.01-.006.01-.006zm2.897-2.955-1.75-.966zm1.023-4.431-2-.023v.045zM91.233 37l-1.75.967.006.01zm-2.898-2.926-.989 1.738.01.006.01.005zm-8.891.17.987 1.74.007-.005zm-3.097 3.324-.386 1.962 1.536.303.662-1.42zm-13.864-2.727-1.995-.142-.125 1.763 1.734.341zm2.273-32.046v-2h-1.863l-.132 1.859zm39.091 0h2v-2h-2zm0 12.614v2h2v-2zm-26.136 0v-2H75.88l-.162 1.824zm-1.137 12.84-1.992-.175-.193 2.176h2.185zm.341 0v2h1.218l.56-1.082zm4.716-4.374.918 1.776.012-.006zm17.045.653-1.022 1.72.006.002zm6.449 6.676-1.75.969.004.007.004.007zm2.358 9.773-2-.01v.02zm-2.898 10.796-1.699-1.055-.002.003zm-8.153 7.357.898 1.787.008-.004zm-12.358 2.642v-2c-4.234 0-7.912-.743-11.077-2.179l-.826 1.822-.826 1.821c3.766 1.708 8.024 2.537 12.73 2.537zm-11.903-2.357.838-1.816c-3.167-1.462-5.599-3.438-7.364-5.91l-1.628 1.163-1.627 1.163c2.212 3.096 5.216 5.495 8.943 7.215zm-8.154-6.563 1.633-1.155c-1.72-2.431-2.61-5.231-2.644-8.468l-2 .02-2 .022c.042 3.998 1.16 7.6 3.379 10.736zm-3.011-9.602v2h15.34v-4h-15.34zm15.34 0-1.998.056c.072 2.563 1.1 4.728 3.081 6.309l1.247-1.564 1.247-1.564c-1.01-.806-1.536-1.842-1.577-3.294zm2.33 4.8-1.237 1.572c1.897 1.494 4.141 2.219 6.635 2.219v-4c-1.673 0-3.027-.469-4.16-1.361zm5.398 1.79v2c1.9 0 3.663-.404 5.23-1.273l-.969-1.749-.968-1.75c-.895.496-1.973.773-3.293.773zm4.261-1.022.99 1.738a9.5 9.5 0 0 0 3.659-3.726l-1.75-.967-1.751-.966a5.5 5.5 0 0 1-2.137 2.183zm2.898-2.955 1.751.967c.893-1.617 1.294-3.446 1.272-5.42l-2 .022-2 .022c.016 1.397-.265 2.523-.773 3.443zm1.023-4.431 2 .022c.022-1.988-.376-3.824-1.278-5.432L91.233 37l-1.744.978c.5.891.783 2.01.767 3.431zM91.233 37l1.751-.967c-.877-1.588-2.11-2.84-3.68-3.709l-.969 1.75-.968 1.75c.891.493 1.59 1.193 2.115 2.143zm-2.898-2.926.99-1.738c-1.572-.895-3.342-1.313-5.25-1.313v4c1.31 0 2.38.282 3.271.789zm-4.26-1.051v-2c-2.01 0-3.897.495-5.626 1.486l.995 1.735.994 1.735a7.15 7.15 0 0 1 3.636-.956zm-4.632 1.221-.987-1.74c-1.752.995-3.078 2.41-3.922 4.218l1.813.846 1.812.846c.482-1.033 1.22-1.834 2.272-2.43zm-3.096 3.324.386-1.962-13.864-2.728-.386 1.963-.386 1.962 13.864 2.727zm-13.864-2.727 1.995.141 2.273-32.045-1.995-.142-1.995-.141-2.273 32.045zm2.273-32.046v2h39.091v-4H64.756zm39.091 0h-2V15.41h4V2.795zm0 12.614v-2H77.711v4h26.136zm-26.136 0-1.993-.176-1.136 12.84 1.992.177 1.992.176 1.137-12.84zm-1.137 12.84v2h.341v-4h-.34zm.341 0 1.777.918c.674-1.304 1.891-2.5 3.857-3.516l-.918-1.776-.918-1.777c-2.504 1.294-4.43 3.016-5.575 5.235zm4.716-4.374.93 1.77c1.903-1 4.168-1.532 6.854-1.532v-4c-3.223 0-6.147.643-8.714 1.991zm7.784-1.762v2c3.143 0 5.87.726 8.24 2.134l1.021-1.719 1.022-1.719c-3.048-1.812-6.494-2.696-10.283-2.696zm9.261 2.415-1.016 1.723c2.412 1.423 4.312 3.385 5.715 5.922l1.75-.969 1.75-.968c-1.74-3.145-4.139-5.634-7.182-7.43zm6.449 6.676-1.742.983c1.398 2.478 2.118 5.385 2.1 8.78l2 .01 2 .01c.021-3.991-.831-7.6-2.616-10.765zm2.358 9.773-2 .01c.018 3.714-.863 6.937-2.597 9.731l1.699 1.054 1.7 1.055c2.168-3.493 3.219-7.468 3.198-11.86zm-2.898 10.796-1.701-1.052c-1.725 2.79-4.157 5-7.358 6.626l.906 1.783.906 1.783c3.807-1.934 6.81-4.63 8.949-8.089zm-8.153 7.357-.898-1.787c-3.173 1.596-6.973 2.43-11.46 2.43v4c4.983 0 9.422-.928 13.256-2.856z" mask="url(#b)"/><defs><linearGradient id="a" x1="54.477" x2="54.477" y1="-17.023" y2="79.977" gradientUnits="userSpaceOnUse"><stop/><stop offset="1" stop-color="#ff6b35"/></linearGradient></defs></svg>