<svg xmlns="http://www.w3.org/2000/svg" width="108" height="65" fill="none" viewBox="0 0 108 65"><mask id="b" width="108" height="65" x="-.522" y="-.023" fill="#000" maskUnits="userSpaceOnUse"><path fill="#fff" d="M-.522-.023h108v65h-108z"/><path d="M27.682 62.568q-7.926-.028-13.693-3.665T5.097 48.42 2 32q.029-9.603 3.125-16.307Q8.25 8.988 13.99 5.494 19.756 2 27.682 2t13.693 3.523q5.767 3.495 8.892 10.198Q53.393 22.426 53.364 32q0 9.63-3.125 16.477T41.347 58.96q-5.738 3.608-13.665 3.608m0-12.84q4.09 0 6.705-4.262Q37.029 41.176 37 32q0-5.995-1.193-9.801t-3.295-5.625q-2.103-1.847-4.83-1.847-4.091 0-6.676 4.148T18.364 32q-.028 6.108 1.165 10.057 1.193 3.92 3.295 5.795 2.13 1.875 4.858 1.875m33.097 11.25V49.612L82.483 31.66q2.16-1.79 3.693-3.352 1.563-1.591 2.387-3.267.852-1.676.852-3.722 0-2.244-.966-3.835a6.26 6.26 0 0 0-2.614-2.443q-1.676-.881-3.863-.881t-3.864.88q-1.647.882-2.557 2.586t-.909 4.148h-15q0-6.137 2.756-10.569 2.756-4.431 7.784-6.818T81.972 2q6.989 0 12.102 2.244 5.142 2.215 7.926 6.25 2.813 4.035 2.813 9.46 0 3.352-1.392 6.677-1.392 3.294-5 7.3t-10.256 9.546l-5.455 4.546v.34h22.728v12.614z"/></mask><path fill="url(#a)" d="m27.682 62.568-.007 2h.007zM13.99 58.903l-1.067 1.692zM5.097 48.42l-1.82.83zM2 32l2 .006zm3.125-16.307-1.812-.845-.003.006zM13.99 5.494l-1.037-1.71-.003.002zm27.386.029-1.042 1.706.006.004zm8.892 10.198 1.813-.845zM53.364 32l-2-.006V32zm-3.125 16.477 1.82.83zM41.347 58.96l1.064 1.693.003-.001zm-6.96-13.494-1.703-1.05-.002.004zM37 32h-2v.006zm-1.193-9.801 1.908-.599zm-3.295-5.625-1.32 1.502.006.005.005.005zm-11.506 2.3-1.697-1.057zM18.364 32l-2-.013v.004zm1.165 10.057-1.915.578.001.004zm3.295 5.795-1.331 1.493.01.008zm4.858 14.716.007-2c-4.97-.018-9.155-1.163-12.633-3.357l-1.067 1.692-1.067 1.692c4.21 2.655 9.156 3.953 14.753 3.973zM13.99 58.903l1.067-1.692c-3.482-2.195-6.2-5.373-8.14-9.621l-1.82.83-1.819.83c2.228 4.881 5.437 8.692 9.645 11.345zM5.097 48.42l1.82-.83C4.98 43.35 3.981 38.176 4 32.006L2 32l-2-.006c-.02 6.595 1.046 12.369 3.277 17.257zM2 32l2 .006c.019-6.197 1.028-11.332 2.941-15.474l-1.816-.839-1.815-.839C1.094 19.651.02 25.388 0 31.994zm3.125-16.307 1.813.845c1.934-4.15 4.636-7.232 8.091-9.336l-1.04-1.708-1.04-1.708C8.752 6.34 5.545 10.058 3.313 14.848zM13.99 5.494l1.036 1.71C18.506 5.096 22.7 4 27.682 4V0c-5.585 0-10.521 1.234-14.73 3.784zM27.682 2v2c4.98 0 9.17 1.104 12.65 3.23l1.043-1.707 1.043-1.707C38.208 1.244 33.27 0 27.682 0zm13.693 3.523-1.036 1.71c3.473 2.104 6.183 5.186 8.116 9.333l1.812-.845 1.813-.845c-2.234-4.792-5.452-8.51-9.668-11.064zm8.892 10.198-1.812.845c1.928 4.137 2.927 9.256 2.909 15.428l2 .006 2 .006c.02-6.594-1.045-12.327-3.284-17.13zM53.364 32h-2c0 6.21-1.008 11.405-2.944 15.647l1.819.83 1.82.83C54.288 44.42 55.363 38.63 55.363 32zm-3.125 16.477-1.82-.83c-1.939 4.248-4.657 7.426-8.139 9.621l1.067 1.692 1.067 1.692c4.207-2.654 7.417-6.464 9.644-11.345zM41.347 58.96l-1.065-1.693c-3.456 2.173-7.628 3.301-12.6 3.301v4c5.596 0 10.534-1.277 14.73-3.915zm-13.665-9.233v2c3.585 0 6.397-1.934 8.41-5.216l-1.705-1.045-1.705-1.046c-1.473 2.4-3.13 3.307-5 3.307zm6.705-4.261 1.703 1.048c2.059-3.343 2.93-8.293 2.91-14.52L37 32l-2 .006c.019 6.007-.853 10.035-2.316 12.41zM37 32h2c0-4.108-.406-7.597-1.285-10.4l-1.908.599-1.908.598C34.61 25.07 35 28.115 35 32zm-1.193-9.801 1.908-.599c-.86-2.746-2.116-5-3.895-6.54l-1.308 1.514-1.309 1.512c1.024.886 1.966 2.381 2.696 4.71zm-3.295-5.625 1.32-1.503c-1.757-1.543-3.832-2.344-6.15-2.344v4c1.319 0 2.463.43 3.51 1.35zm-4.83-1.847v-2c-3.561 0-6.367 1.872-8.373 5.09l1.697 1.058 1.697 1.058c1.441-2.312 3.086-3.206 4.98-3.206zm-6.676 4.148-1.697-1.058c-2.023 3.245-2.907 8.08-2.945 14.17l2 .013 2 .012c.037-5.879.915-9.795 2.34-12.08zM18.364 32l-2-.01c-.02 4.186.377 7.754 1.25 10.645l1.915-.578 1.914-.579c-.717-2.374-1.098-5.51-1.08-9.469zm1.165 10.057-1.914.582c.857 2.814 2.105 5.124 3.878 6.706l1.331-1.493 1.331-1.492c-1.03-.92-1.979-2.473-2.713-4.886zm3.295 5.795-1.321 1.502c1.77 1.556 3.853 2.373 6.18 2.373v-4c-1.311 0-2.466-.433-3.538-1.376zM60.78 60.977h-2v2h2zm0-11.364-1.275-1.54-.725.6v.94zM82.483 31.66l1.275 1.54h.002zm3.693-3.352-1.427-1.402zm2.387-3.267-1.783-.907-.006.012-.006.012zm-.114-7.557-1.723 1.015.007.011.007.012zm-2.614-2.443-.93 1.77.012.006.012.006zm-7.727 0-.93-1.771-.013.007zm-2.557 2.585-1.764-.941zm-.909 4.148v2h2v-2zm-15 0h-2v2h2zm2.756-10.569L60.7 10.148zm7.784-6.818.858 1.807zm23.892-.142-.804 1.832.013.005zm7.926 6.25-1.646 1.136.006.008zm1.421 16.137 1.842.778.002-.006zm-5 7.3 1.486 1.34zm-10.256 9.546 1.28 1.537zm-5.455 4.546-1.28-1.537-.72.6v.937zm0 .34h-2v2h2zm22.728 0h2v-2h-2zm0 12.614v2h2v-2zm-44.66 0h2V49.613h-4v11.364zm0-11.364 1.276 1.541L83.758 33.2l-1.275-1.541-1.275-1.541-21.704 17.954zM82.484 31.66l1.277 1.54c1.478-1.226 2.762-2.39 3.843-3.491l-1.427-1.401-1.427-1.402q-1.443 1.473-3.542 3.214zm3.693-3.352 1.427 1.401c1.163-1.184 2.095-2.444 2.755-3.786l-1.795-.882-1.795-.883c-.439.893-1.098 1.811-2.019 2.748zm2.387-3.267 1.782.906c.724-1.422 1.07-2.978 1.07-4.628h-4c0 1.077-.222 2.003-.635 2.815zm.852-3.722h2c0-1.787-.387-3.44-1.256-4.873l-1.71 1.038-1.71 1.038c.419.688.676 1.591.676 2.797zm-.966-3.835 1.723-1.016a8.26 8.26 0 0 0-3.43-3.21l-.907 1.783-.906 1.782c.784.4 1.37.95 1.797 1.676zm-2.614-2.443.93-1.77c-1.445-.76-3.061-1.111-4.793-1.111v4c1.185 0 2.144.237 2.933.651zm-3.863-.881v-2c-1.732 0-3.348.35-4.794 1.11l.93 1.77.93 1.771c.79-.414 1.749-.651 2.934-.651zm-3.864.88-.943-1.763c-1.46.78-2.593 1.934-3.378 3.408l1.764.94 1.765.942c.426-.8.998-1.369 1.735-1.763zm-2.557 2.586-1.764-.941c-.796 1.492-1.145 3.216-1.145 5.089h4c0-1.386.258-2.427.674-3.207zm-.909 4.148v-2h-15v4h15zm-15 0h2c0-3.785.847-6.927 2.454-9.513l-1.698-1.056-1.698-1.056c-2.067 3.324-3.058 7.227-3.058 11.625zm2.756-10.569 1.698 1.056c1.621-2.606 3.914-4.63 6.944-6.067l-.858-1.807-.857-1.807c-3.675 1.744-6.572 4.267-8.625 7.57zm7.784-6.818.858 1.807C74.073 4.753 77.698 4 81.972 4V0c-4.742 0-8.976.837-12.647 2.58zM81.972 2v2c4.45 0 8.198.715 11.298 2.075l.804-1.83.804-1.832C91.16.78 86.84 0 81.972 0zm12.102 2.244-.791 1.837c3.133 1.35 5.458 3.211 7.071 5.55L102 10.493l1.646-1.136c-2.098-3.04-5.058-5.346-8.78-6.95zm7.926 6.25-1.64 1.144c1.617 2.32 2.453 5.064 2.453 8.316h4c0-3.982-1.039-7.544-3.172-10.604zm2.813 9.46h-2c0 1.95-.404 3.914-1.237 5.904l1.845.773 1.844.772c1.023-2.442 1.548-4.93 1.548-7.449zm-1.392 6.677-1.843-.779c-.809 1.916-2.32 4.161-4.643 6.741l1.486 1.339 1.486 1.338c2.486-2.76 4.309-5.383 5.356-7.861zm-5 7.3-1.486-1.338c-2.316 2.57-5.654 5.684-10.05 9.348l1.28 1.536 1.28 1.537c4.467-3.723 7.966-6.974 10.462-9.744zm-10.256 9.546-1.28-1.536-5.455 4.545 1.28 1.537 1.28 1.536 5.455-4.545zm-5.455 4.546h-2v.34h4v-.34zm0 .34v2h22.728v-4H82.71zm22.728 0h-2v12.614h4V48.363zm0 12.614v-2h-44.66v4h44.66z" mask="url(#b)"/><defs><linearGradient id="a" x1="53.977" x2="53.977" y1="-17.023" y2="79.977" gradientUnits="userSpaceOnUse"><stop/><stop offset="1" stop-color="#ff6b35"/></linearGradient></defs></svg>