<svg xmlns="http://www.w3.org/2000/svg" width="56" height="56" fill="none" viewBox="0 0 56 56"><path fill="#ff6b35" d="M52 16.226V18H4v-1.774c0-4.848 3.84-8.783 8.571-8.783h2.572V5.757c0-.967.771-1.757 1.714-1.757s1.714.79 1.714 1.757v1.686H37.43V5.757C37.429 4.79 38.2 4 39.143 4s1.714.79 1.714 1.757v1.686h2.572c4.731 0 8.571 3.935 8.571 8.783M4 41.403C4 46.15 7.84 50 12.571 50H43.43c4.73 0 8.57-3.851 8.57-8.597V19H4z"/><path fill="#fff" d="M18.487 31.087a1.675 1.675 0 0 1 2.366 0l4.865 4.883 9.429-9.48a1.675 1.675 0 0 1 2.366 0 1.69 1.69 0 0 1 0 2.374l-10.63 10.65a1.66 1.66 0 0 1-2.348 0l-6.048-6.069a1.67 1.67 0 0 1-.002-2.355z"/></svg>