<svg xmlns="http://www.w3.org/2000/svg" width="113" height="65" fill="none" viewBox="0 0 113 65"><mask id="b" width="113" height="65" x="-.522" y="-.023" fill="#000" maskUnits="userSpaceOnUse"><path fill="#fff" d="M-.522-.023h113v65h-113z"/><path d="M27.682 62.568q-7.926-.028-13.693-3.665T5.097 48.42 2 32q.029-9.603 3.125-16.307Q8.25 8.988 13.99 5.494 19.756 2 27.682 2t13.693 3.523q5.767 3.495 8.892 10.198Q53.393 22.426 53.364 32q0 9.63-3.125 16.477T41.347 58.96q-5.738 3.608-13.665 3.608m0-12.84q4.09 0 6.705-4.262Q37.029 41.176 37 32q0-5.995-1.193-9.801t-3.295-5.625q-2.103-1.847-4.83-1.847-4.091 0-6.676 4.148T18.364 32q-.028 6.108 1.165 10.057 1.193 3.92 3.295 5.795 2.13 1.875 4.858 1.875m32.529 2.158V39.613L83.62 2.795h11.136V19.16h-6.364l-12.613 20v.454h34.545v12.273zm28.295 9.091v-12.84l.34-5.342v-40h14.774v58.182z"/></mask><path fill="url(#a)" d="m27.682 62.568-.007 2h.007zM13.99 58.903l-1.067 1.692zM5.097 48.42l-1.82.83zM2 32l2 .006zm3.125-16.307-1.812-.845-.003.006zM13.99 5.494l-1.037-1.71-.003.002zm27.386.029-1.042 1.706.006.004zm8.892 10.198 1.813-.845zM53.364 32l-2-.006V32zm-3.125 16.477 1.82.83zM41.347 58.96l1.064 1.693.003-.001zm-6.96-13.494-1.703-1.05-.002.004zM37 32h-2v.006zm-1.193-9.801 1.908-.599zm-3.295-5.625-1.32 1.502.006.005.005.005zm-11.506 2.3-1.697-1.057zM18.364 32l-2-.013v.004zm1.165 10.057-1.915.578.001.004zm3.295 5.795-1.331 1.493.01.008zm4.858 14.716.007-2c-4.97-.018-9.155-1.163-12.633-3.357l-1.067 1.692-1.067 1.692c4.21 2.655 9.156 3.953 14.753 3.973zM13.99 58.903l1.067-1.692c-3.482-2.195-6.2-5.373-8.14-9.621l-1.82.83-1.819.83c2.228 4.881 5.437 8.692 9.645 11.345zM5.097 48.42l1.82-.83C4.98 43.35 3.981 38.176 4 32.006L2 32l-2-.006c-.02 6.595 1.046 12.369 3.277 17.257zM2 32l2 .006c.019-6.197 1.028-11.332 2.941-15.474l-1.816-.839-1.815-.839C1.094 19.651.02 25.388 0 31.994zm3.125-16.307 1.813.845c1.934-4.15 4.636-7.232 8.091-9.336l-1.04-1.708-1.04-1.708C8.752 6.34 5.545 10.058 3.313 14.848zM13.99 5.494l1.036 1.71C18.506 5.096 22.7 4 27.682 4V0c-5.585 0-10.521 1.234-14.73 3.784zM27.682 2v2c4.98 0 9.17 1.104 12.65 3.23l1.043-1.707 1.043-1.707C38.208 1.244 33.27 0 27.682 0zm13.693 3.523-1.036 1.71c3.473 2.104 6.183 5.186 8.116 9.333l1.812-.845 1.813-.845c-2.234-4.792-5.452-8.51-9.668-11.064zm8.892 10.198-1.812.845c1.928 4.137 2.927 9.256 2.909 15.428l2 .006 2 .006c.02-6.594-1.045-12.327-3.284-17.13zM53.364 32h-2c0 6.21-1.008 11.405-2.944 15.647l1.819.83 1.82.83C54.288 44.42 55.363 38.63 55.363 32zm-3.125 16.477-1.82-.83c-1.939 4.248-4.657 7.426-8.139 9.621l1.067 1.692 1.067 1.692c4.207-2.654 7.417-6.464 9.644-11.345zM41.347 58.96l-1.065-1.693c-3.456 2.173-7.628 3.301-12.6 3.301v4c5.596 0 10.534-1.277 14.73-3.915zm-13.665-9.233v2c3.585 0 6.397-1.934 8.41-5.216l-1.705-1.045-1.705-1.046c-1.473 2.4-3.13 3.307-5 3.307zm6.705-4.261 1.703 1.048c2.059-3.343 2.93-8.293 2.91-14.52L37 32l-2 .006c.019 6.007-.853 10.035-2.316 12.41zM37 32h2c0-4.108-.406-7.597-1.285-10.4l-1.908.599-1.908.598C34.61 25.07 35 28.115 35 32zm-1.193-9.801 1.908-.599c-.86-2.746-2.116-5-3.895-6.54l-1.308 1.514-1.309 1.512c1.024.886 1.966 2.381 2.696 4.71zm-3.295-5.625 1.32-1.503c-1.757-1.543-3.832-2.344-6.15-2.344v4c1.319 0 2.463.43 3.51 1.35zm-4.83-1.847v-2c-3.561 0-6.367 1.872-8.373 5.09l1.697 1.058 1.697 1.058c1.441-2.312 3.086-3.206 4.98-3.206zm-6.676 4.148-1.697-1.058c-2.023 3.245-2.907 8.08-2.945 14.17l2 .013 2 .012c.037-5.879.915-9.795 2.34-12.08zM18.364 32l-2-.01c-.02 4.186.377 7.754 1.25 10.645l1.915-.578 1.914-.579c-.717-2.374-1.098-5.51-1.08-9.469zm1.165 10.057-1.914.582c.857 2.814 2.105 5.124 3.878 6.706l1.331-1.493 1.331-1.492c-1.03-.92-1.979-2.473-2.713-4.886zm3.295 5.795-1.321 1.502c1.77 1.556 3.853 2.373 6.18 2.373v-4c-1.311 0-2.466-.433-3.538-1.376zm37.387 4.034h-2v2h2zm0-12.273-1.688-1.073-.312.491v.582zM83.62 2.795v-2h-1.1l-.59.927zm11.136 0h2v-2h-2zm0 16.364v2h2v-2zm-6.364 0v-2H87.29l-.588.933zm-12.613 20-1.692-1.067-.308.489v.578zm0 .454h-2v2h2zm34.545 0h2v-2h-2zm0 12.273v2h2v-2zm-21.818 9.091h-2v2h2zm0-12.84-1.996-.128-.004.063v.064zm.34-5.342 1.997.128.004-.064v-.064zm0-40v-2h-2v2zm14.774 0h2v-2h-2zm0 58.182v2h2v-2zm-43.41-9.09h2V39.612h-4v12.273zm0-12.274 1.688 1.074 23.41-36.819-1.688-1.073-1.688-1.073-23.41 36.818zM83.62 2.795v2h11.136v-4H83.62zm11.136 0h-2V19.16h4V2.795zm0 16.364v-2h-6.364v4h6.364zm-6.364 0-1.691-1.067-12.614 20 1.692 1.067 1.691 1.067 12.614-20zm-12.613 20h-2v.454h4v-.454zm0 .454v2h34.545v-4H75.779zm34.545 0h-2v12.273h4V39.613zm0 12.273v-2H60.211v4h50.113zm-21.818 9.091h2v-12.84h-4v12.84zm0-12.84 1.996.127.34-5.341-1.995-.128-1.996-.127-.341 5.34zm.34-5.342h2v-40h-4v40zm0-40v2h14.774v-4H88.847zm14.774 0h-2v58.182h4V2.795zm0 58.182v-2H88.506v4h15.114z" mask="url(#b)"/><defs><linearGradient id="a" x1="55.977" x2="55.977" y1="-17.023" y2="79.977" gradientUnits="userSpaceOnUse"><stop/><stop offset="1" stop-color="#ff6b35"/></linearGradient></defs></svg>