<svg xmlns="http://www.w3.org/2000/svg" width="56" height="56" fill="none" viewBox="0 0 56 56"><g fill="#ff6b35" clip-path="url(#a)"><path d="M23.082 43.514c1.787-1.843 2.062-4.73.614-6.447s-4.07-1.616-5.857.227c-1.788 1.842-2.063 4.728-.615 6.446s4.07 1.616 5.857-.226m23.649.002c1.788-1.843 2.063-4.73.615-6.447s-4.07-1.616-5.858.226-2.062 4.73-.614 6.447c1.448 1.718 4.07 1.616 5.857-.226M4 20.852c0-1.105-.67-2-1.5-2-.828 0-1.5.895-1.5 2s.672 2 1.5 2c.83 0 1.5-.896 1.5-2"/><path d="M37.887 39.848c.663-3.577 3.76-6.42 7.088-6.42 3.205 0 5.515 2.637 5.451 6.027 3.466.099 4.431-4.882 4.431-4.882.292-1.393.728-4.108 1.093-6.773a4.9 4.9 0 0 0-.266-2.435 43 43 0 0 0-3.271-6.615c-1.202-1.957-3.218-3.116-5.52-3.158-1.372-.023-2.72-.038-3.736-.038l-.01-.01c-.13-2.394-1.73-4.227-3.975-4.447-1.461-.142-7.248-.245-10.026-.245a256 256 0 0 0-4.289.045v-.007H5.584c-.245 0-.487.052-.714.154a1.9 1.9 0 0 0-.606.442c-.173.189-.31.414-.404.66a2.2 2.2 0 0 0-.142.78v.01c0 .537.196 1.053.544 1.433s.821.594 1.314.594h3.882c.468.038.905.267 1.224.641.319.375.497.867.497 1.379v.01c0 .268-.047.534-.14.781a2.1 2.1 0 0 1-.404.663c-.173.19-.379.34-.605.443-.227.103-.47.156-.715.156H7.324c-.495 0-.97.214-1.319.596-.35.382-.546.9-.546 1.44 0 .267.048.532.141.779.094.247.231.471.405.66.173.19.379.34.605.442s.469.155.714.155h1.99c.496 0 .97.215 1.32.597s.547.9.547 1.44-.196 1.058-.546 1.44-.825.596-1.32.596H1.867c-.495 0-.97.215-1.32.596-.35.382-.546.9-.546 1.44s.196 1.058.546 1.44.825.596 1.32.596h7.448c.495 0 .97.215 1.32.597s.546.9.546 1.44-.197 1.057-.547 1.438a1.8 1.8 0 0 1-1.32.596H7.013c-.495 0-.97.215-1.32.596-.35.382-.546.9-.546 1.44s.197 1.057.547 1.44c.35.381.824.596 1.319.596l7.349-.006.61-1.66c1.252-2.52 3.741-4.303 6.377-4.303 3.329 0 5.694 2.845 5.434 6.425h11.104m5.1-21.474c.975 0 2.238.014 3.506.037 1.536.027 2.88.798 3.686 2.112a40 40 0 0 1 2.318 4.423c.36.802-.303 1.845-1.172 1.845H42.01z"/></g><defs><clipPath id="a"><path fill="#fff" d="M0 0h56v56H0z"/></clipPath></defs></svg>