<svg xmlns="http://www.w3.org/2000/svg" width="110" height="65" fill="none" viewBox="0 0 110 65"><mask id="b" width="111" height="65" x="-.522" y="-.023" fill="#000" maskUnits="userSpaceOnUse"><path fill="#fff" d="M-.522-.023h111v65h-111z"/><path d="M27.682 62.568q-7.926-.028-13.693-3.665T5.097 48.42 2 32q.029-9.603 3.125-16.307Q8.25 8.988 13.99 5.494 19.756 2 27.682 2t13.693 3.523q5.767 3.495 8.892 10.198Q53.393 22.426 53.364 32q0 9.63-3.125 16.477T41.347 58.96q-5.738 3.608-13.665 3.608m0-12.84q4.09 0 6.705-4.262Q37.029 41.176 37 32q0-5.995-1.193-9.801t-3.295-5.625q-2.103-1.847-4.83-1.847-4.091 0-6.676 4.148T18.364 32q-.028 6.108 1.165 10.057 1.193 3.92 3.295 5.795 2.13 1.875 4.858 1.875m55.824 12.045q-6.875 0-12.216-2.358-5.313-2.387-8.352-6.563T59.87 43.25h15.909a5.07 5.07 0 0 0 1.021 3.01q1.023 1.306 2.784 2.046 1.762.738 4.035.738 2.187 0 3.863-.767 1.677-.796 2.614-2.187.938-1.392.909-3.182a4.7 4.7 0 0 0-1.08-3.125q-1.08-1.365-3.04-2.13-1.96-.768-4.516-.768h-5.91V25.977h5.91q2.358 0 4.147-.767 1.818-.767 2.813-2.13 1.023-1.364.994-3.126.029-1.704-.824-3.011-.852-1.306-2.386-2.046-1.506-.738-3.494-.738-2.16 0-3.864.767-1.677.767-2.642 2.13-.966 1.364-.994 3.126H61.006q.028-5.341 2.926-9.432 2.926-4.091 8.011-6.42Q77.028 2 83.62 2q6.448 0 11.392 2.187 4.971 2.188 7.755 6.023 2.813 3.807 2.784 8.722.057 4.886-3.352 8.011-3.381 3.125-8.58 3.693v.455q7.047.766 10.597 4.318 3.551 3.522 3.494 8.864.029 5.114-3.068 9.062-3.067 3.95-8.55 6.193-5.455 2.244-12.586 2.245"/></mask><path fill="url(#a)" d="m27.682 62.568-.007 2h.007zM13.99 58.903l-1.067 1.692zM5.097 48.42l-1.82.83zM2 32l2 .006zm3.125-16.307-1.812-.845-.003.006zM13.99 5.494l-1.037-1.71-.003.002zm27.386.029-1.042 1.706.006.004zm8.892 10.198 1.813-.845zM53.364 32l-2-.006V32zm-3.125 16.477 1.82.83zM41.347 58.96l1.064 1.693.003-.001zm-6.96-13.494-1.703-1.05-.002.004zM37 32h-2v.006zm-1.193-9.801 1.908-.599zm-3.295-5.625-1.32 1.502.006.005.005.005zm-11.506 2.3-1.697-1.057zM18.364 32l-2-.013v.004zm1.165 10.057-1.915.578.001.004zm3.295 5.795-1.331 1.493.01.008zm4.858 14.716.007-2c-4.97-.018-9.155-1.163-12.633-3.357l-1.067 1.692-1.067 1.692c4.21 2.655 9.156 3.953 14.753 3.973zM13.99 58.903l1.067-1.692c-3.482-2.195-6.2-5.373-8.14-9.621l-1.82.83-1.819.83c2.228 4.881 5.437 8.692 9.645 11.345zM5.097 48.42l1.82-.83C4.98 43.35 3.981 38.176 4 32.006L2 32l-2-.006c-.02 6.595 1.046 12.369 3.277 17.257zM2 32l2 .006c.019-6.197 1.028-11.332 2.941-15.474l-1.816-.839-1.815-.839C1.094 19.651.02 25.388 0 31.994zm3.125-16.307 1.813.845c1.934-4.15 4.636-7.232 8.091-9.336l-1.04-1.708-1.04-1.708C8.752 6.34 5.545 10.058 3.313 14.848zM13.99 5.494l1.036 1.71C18.506 5.096 22.7 4 27.682 4V0c-5.585 0-10.521 1.234-14.73 3.784zM27.682 2v2c4.98 0 9.17 1.104 12.65 3.23l1.043-1.707 1.043-1.707C38.208 1.244 33.27 0 27.682 0zm13.693 3.523-1.036 1.71c3.473 2.104 6.183 5.186 8.116 9.333l1.812-.845 1.813-.845c-2.234-4.792-5.452-8.51-9.668-11.064zm8.892 10.198-1.812.845c1.928 4.137 2.927 9.256 2.909 15.428l2 .006 2 .006c.02-6.594-1.045-12.327-3.284-17.13zM53.364 32h-2c0 6.21-1.008 11.405-2.944 15.647l1.819.83 1.82.83C54.288 44.42 55.363 38.63 55.363 32zm-3.125 16.477-1.82-.83c-1.939 4.248-4.657 7.426-8.139 9.621l1.067 1.692 1.067 1.692c4.207-2.654 7.417-6.464 9.644-11.345zM41.347 58.96l-1.065-1.693c-3.456 2.173-7.628 3.301-12.6 3.301v4c5.596 0 10.534-1.277 14.73-3.915zm-13.665-9.233v2c3.585 0 6.397-1.934 8.41-5.216l-1.705-1.045-1.705-1.046c-1.473 2.4-3.13 3.307-5 3.307zm6.705-4.261 1.703 1.048c2.059-3.343 2.93-8.293 2.91-14.52L37 32l-2 .006c.019 6.007-.853 10.035-2.316 12.41zM37 32h2c0-4.108-.406-7.597-1.285-10.4l-1.908.599-1.908.598C34.61 25.07 35 28.115 35 32zm-1.193-9.801 1.908-.599c-.86-2.746-2.116-5-3.895-6.54l-1.308 1.514-1.309 1.512c1.024.886 1.966 2.381 2.696 4.71zm-3.295-5.625 1.32-1.503c-1.757-1.543-3.832-2.344-6.15-2.344v4c1.319 0 2.463.43 3.51 1.35zm-4.83-1.847v-2c-3.561 0-6.367 1.872-8.373 5.09l1.697 1.058 1.697 1.058c1.441-2.312 3.086-3.206 4.98-3.206zm-6.676 4.148-1.697-1.058c-2.023 3.245-2.907 8.08-2.945 14.17l2 .013 2 .012c.037-5.879.915-9.795 2.34-12.08zM18.364 32l-2-.01c-.02 4.186.377 7.754 1.25 10.645l1.915-.578 1.914-.579c-.717-2.374-1.098-5.51-1.08-9.469zm1.165 10.057-1.914.582c.857 2.814 2.105 5.124 3.878 6.706l1.331-1.493 1.331-1.492c-1.03-.92-1.979-2.473-2.713-4.886zm3.295 5.795-1.321 1.502c1.77 1.556 3.853 2.373 6.18 2.373v-4c-1.311 0-2.466-.433-3.538-1.376zM71.29 59.415l-.82 1.824.012.005zm-8.352-6.563 1.617-1.177zM59.87 43.25v-2h-2.01l.01 2.01zm15.909 0 2-.034-.034-1.966H75.78zm1.021 3.01-1.604 1.195.015.019.014.019zm2.784 2.046-.773 1.844zm7.898-.029.832 1.819.013-.006.013-.006zm2.614-2.187 1.659 1.117zm.909-3.182-2-.032v.064zm-1.08-3.125-1.568 1.241.008.01.008.01zM76.46 36.886h-2v2h2zm0-10.909v-2h-2v2zm10.057-.767-.777-1.843-.01.005zm2.813-2.13-1.6-1.2-.008.01-.008.011zm.994-3.126-2-.033v.066zm-.824-3.011-1.675 1.092zm-2.386-2.046-.881 1.796.007.003.006.003zm-7.358.029-.82-1.824-.012.005zm-2.642 2.13 1.632 1.157zm-.994 3.126v2h1.968l.031-1.968zm-15.114 0-2-.011-.01 2.01h2.01zm2.926-9.432-1.627-1.164-.005.008zm8.011-6.42.833 1.818zm23.069-.143-.81 1.83h.004zm7.755 6.023-1.618 1.175.005.007.005.007zm2.784 8.722-2-.012v.017l.001.018zm-3.352 8.011-1.351-1.474-.006.005zm-8.58 3.693-.217-1.988-1.782.195v1.793zm0 .455h-2v1.794l1.784.194zm10.597 4.318-1.414 1.414.006.006zm3.494 8.864-1.999-.022-.001.016.001.017zm-3.068 9.062-1.574-1.234-.005.007zm-8.55 6.193-.758-1.85h-.004zm-12.586 2.245v-2c-4.354 0-8.143-.747-11.408-2.188l-.808 1.83-.808 1.83c3.856 1.702 8.211 2.528 13.024 2.528zM71.29 59.415l.82-1.825c-3.266-1.467-5.759-3.447-7.555-5.915l-1.617 1.177-1.617 1.177c2.256 3.1 5.332 5.495 9.15 7.21zm-8.352-6.563 1.617-1.177c-1.767-2.427-2.669-5.215-2.685-8.436l-2 .01-2 .011c.02 4.015 1.165 7.628 3.45 10.769zM59.87 43.25v2h15.909v-4h-15.91zm15.909 0-2 .034a7.06 7.06 0 0 0 1.418 4.172l1.604-1.195 1.605-1.194a3.07 3.07 0 0 1-.628-1.851zm1.021 3.01-1.575 1.233c.923 1.178 2.145 2.053 3.586 2.657l.773-1.844.774-1.845c-.907-.38-1.541-.87-1.983-1.434zm2.784 2.046-.773 1.844c1.461.613 3.076.894 4.808.894v-4c-1.3 0-2.374-.21-3.261-.583zm4.035.738v2c1.692 0 3.273-.297 4.695-.948l-.832-1.819-.832-1.818c-.812.371-1.807.585-3.031.585zm3.863-.767.858 1.807c1.406-.667 2.569-1.62 3.415-2.877l-1.66-1.117-1.658-1.117c-.404.6-.984 1.104-1.812 1.497zm2.614-2.187 1.659 1.117c.869-1.29 1.275-2.758 1.25-4.33l-2 .03-2 .033c.013.813-.187 1.467-.568 2.032zm.909-3.182 2 .032a6.7 6.7 0 0 0-1.527-4.418l-1.553 1.26-1.552 1.262a2.7 2.7 0 0 1 .632 1.832zm-1.08-3.125 1.569-1.242c-.982-1.24-2.312-2.138-3.88-2.751l-.728 1.862-.73 1.863c1.047.41 1.743.93 2.201 1.51zm-3.04-2.13.73-1.863c-1.584-.62-3.344-.905-5.246-.905v4c1.507 0 2.757.226 3.788.63zm-4.516-.768v-2h-5.91v4h5.91zm-5.91 0h2V25.977h-4v10.91zm0-10.909v2h5.91v-4h-5.91zm5.91 0v2c1.787 0 3.446-.29 4.935-.929l-.788-1.838-.787-1.838c-.898.384-2.004.605-3.36.605zm4.147-.767.778 1.843c1.49-.629 2.74-1.546 3.65-2.795l-1.615-1.179-1.616-1.178c-.415.569-1.04 1.072-1.974 1.466zm2.813-2.13 1.6 1.2c.957-1.277 1.42-2.756 1.394-4.358l-2 .032-2 .033c.012.746-.188 1.35-.594 1.892zm.994-3.126 2 .034c.025-1.497-.342-2.9-1.148-4.138L89.5 16.943l-1.675 1.092c.33.506.512 1.11.5 1.886zm-.824-3.011 1.675-1.093c-.785-1.204-1.873-2.119-3.193-2.754l-.868 1.802-.868 1.802c.725.349 1.228.798 1.579 1.335zm-2.386-2.046.88-1.795c-1.324-.65-2.8-.943-4.374-.943v4c1.076 0 1.93.199 2.613.534zm-3.494-.738v-2c-1.68 0-3.253.299-4.685.943l.821 1.824.82 1.824c.842-.379 1.844-.591 3.044-.591zm-3.864.767-.832-1.819c-1.404.643-2.574 1.568-3.442 2.794l1.632 1.156 1.632 1.156c.42-.593 1.011-1.088 1.842-1.469zm-2.642 2.13L75.481 15.9c-.89 1.256-1.337 2.694-1.362 4.248l2 .033 2 .032c.012-.794.228-1.44.626-2.001zm-.994 3.126v-2H61.006v4H76.12zm-15.114 0 2 .01c.017-3.178.88-5.916 2.558-8.286l-1.632-1.156L62.3 9.594c-2.185 3.084-3.273 6.634-3.294 10.577zm2.926-9.432 1.627 1.163c1.725-2.412 4.108-4.341 7.217-5.765l-.832-1.819-.834-1.818c-3.67 1.682-6.629 4.033-8.805 7.075zm8.011-6.42.833 1.818C75.863 4.734 79.462 4 83.62 4V0c-4.631 0-8.815.819-12.51 2.511zM83.62 2v2c4.073 0 7.586.69 10.582 2.016l.81-1.829.809-1.829C92.226.768 88.145 0 83.62 0zm11.392 2.187-.806 1.83c3.038 1.338 5.324 3.138 6.943 5.368l1.618-1.175 1.619-1.175c-2.093-2.883-4.978-5.099-8.569-6.678zm7.755 6.023-1.608 1.188c1.608 2.177 2.409 4.66 2.392 7.522l2 .012 2 .011c.022-3.69-1.033-7.022-3.175-9.921zm2.784 8.722-1.999.023c.031 2.725-.877 4.839-2.704 6.514l1.351 1.474 1.352 1.474c2.718-2.491 4.044-5.719 4-9.509zm-3.352 8.011-1.357-1.469c-1.898 1.754-4.34 2.835-7.44 3.174l.218 1.988.217 1.988c3.831-.418 7.109-1.8 9.72-4.212zm-8.58 3.693h-2v.455h4v-.455zm0 .455-.216 1.988c4.427.482 7.463 1.808 9.399 3.744l1.414-1.414 1.414-1.414c-2.799-2.8-6.827-4.352-11.794-4.893zm10.597 4.318-1.408 1.42c1.955 1.94 2.935 4.361 2.903 7.422l1.999.022 2 .02c.044-4.06-1.306-7.547-4.085-10.304zm3.494 8.864-1.999.01c.016 2.968-.862 5.548-2.643 7.818l1.574 1.234 1.574 1.234c2.349-2.995 3.516-6.457 3.494-10.308zm-3.068 9.062-1.579-1.227c-1.794 2.31-4.338 4.181-7.73 5.57l.758 1.85.758 1.851c3.919-1.604 7.076-3.861 9.373-6.817zm-8.55 6.193-.762-1.85c-3.35 1.38-7.278 2.095-11.824 2.095v4c4.962 0 9.424-.781 13.346-2.395z" mask="url(#b)"/><defs><linearGradient id="a" x1="54.977" x2="54.977" y1="-17.023" y2="79.977" gradientUnits="userSpaceOnUse"><stop/><stop offset="1" stop-color="#ff6b35"/></linearGradient></defs></svg>